# Blender v2.71 (sub 0) OBJ File: ''
# www.blender.org
o Cube
v 7.579620 -1.000000 -7.231942
v 7.579620 -1.000000 7.322031
v -7.502286 -1.000000 7.322031
v -7.502285 -1.000000 -7.231942
v 7.579621 -0.393836 -7.153742
v 7.579620 -0.393836 7.400230
v -7.502286 -0.393836 7.400229
v -7.502286 -0.393836 -7.153743
vn 0.000000 -1.000000 -0.000000
vn 0.000000 1.000000 -0.000000
vn 1.000000 0.000000 0.000000
vn -0.000000 -0.127900 0.991800
vn -1.000000 -0.000000 -0.000000
vn 0.000000 0.127900 -0.991800
s off
f 2//1 3//1 4//1
f 5//2 8//2 7//2
f 1//3 5//3 6//3
f 2//4 6//4 7//4
f 7//5 8//5 4//5
f 1//6 4//6 8//6
f 1//1 2//1 4//1
f 6//2 5//2 7//2
f 2//3 1//3 6//3
f 3//4 2//4 7//4
f 3//5 7//5 4//5
f 5//6 1//6 8//6
